<?xml version="1.0" standalone="no"?>
<!DOCTYPE svg PUBLIC "-//W3C//DTD SVG 20010904//EN"
 "http://www.w3.org/TR/2001/REC-SVG-20010904/DTD/svg10.dtd">
<svg version="1.0" xmlns="http://www.w3.org/2000/svg"
 width="500.000000pt" height="500.000000pt" viewBox="0 0 500.000000 500.000000"
 preserveAspectRatio="xMidYMid meet">

<g transform="translate(0.000000,500.000000) scale(0.100000,-0.100000)"
fill="#FFFFFF" stroke="none">
<path d="M2345 4680 c-786 -48 -1514 -553 -1837 -1272 -110 -247 -175 -503
-183 -723 l-5 -130 18 100 c118 636 511 1164 1080 1449 479 240 1014 279 1522
110 749 -248 1275 -905 1360 -1696 98 -925 -469 -1801 -1358 -2097 -121 -40
-271 -74 -402 -91 -66 -8 -58 -9 65 -5 629 17 1242 342 1641 870 491 649 571
1525 209 2270 -188 387 -505 723 -885 938 -289 164 -596 255 -935 277 -88 5
-162 9 -165 8 -3 0 -59 -4 -125 -8z"/>
<path d="M2318 4143 c6 -2 18 -2 25 0 6 3 1 5 -13 5 -14 0 -19 -2 -12 -5z"/>
<path d="M2065 4129 c-583 -75 -1129 -469 -1390 -1004 -65 -133 -126 -311
-157 -460 -20 -97 -23 -137 -23 -345 1 -216 3 -245 28 -361 36 -171 76 -289
152 -444 158 -326 416 -600 735 -783 100 -57 218 -112 240 -112 7 0 9 317 8
1003 l-3 1002 -212 3 -213 2 0 -642 -1 -643 -39 45 c-168 190 -305 470 -360
734 -116 553 49 1119 440 1516 265 270 617 444 995 493 17 2 -6 4 -50 4 -44 0
-111 -4 -150 -8z"/>
<path d="M2920 2065 c0 -1012 3 -1465 10 -1465 6 0 59 22 118 48 519 231 899
683 1037 1229 30 121 55 310 54 406 l-1 72 -13 -100 c-52 -397 -261 -788 -555
-1040 -83 -71 -209 -164 -222 -165 -5 0 -8 558 -8 1240 l0 1240 -210 0 -210 0
0 -1465z"/>
<path d="M2080 1816 l0 -1313 83 -6 c105 -9 231 -9 291 -1 l46 7 0 1313 0
1314 -210 0 -210 0 0 -1314z"/>
</g>
</svg>
